<?xml version="1.0" encoding="UTF-8"?>
<svg width="800" height="800" version="1.1" viewBox="0 0 800 800" xmlns="http://www.w3.org/2000/svg">
 <g>
  <path d="m492.5 125.5c-15.5 2.5-33.5 10.5-47 21-11 8.5-29 27.5-36.5 38.5-3.5 5-7 9-7.5 9s-5-2-10-4.5c-12-6-32.5-12-47.5-14-31-4-65 6.5-92.5 28.5-12 9.5-32 29.5-41.5 41.5-22 28-34.5 61.5-37 99.5-1 13.5-0.5 18.5 4 36 3 11.5 6 19.5 11 30 8 16.5 14 25.5 29 43 11 13 13 15 22.5 21.5 14.5 10 32.5 18.5 51 24 9 2.5 12 4 15.5 7.5 5 5 9.5 14 11.5 23 1 4 2 7.5 2.5 7.5 0.5 0.5 3.5-1.5 7-4 9-6.5 19-10.5 31-12.5 10.5-1.5 31.5-0.5 41.5 2 8.5 2 20 7 20 8.5 0 0.5 1 1 2 1 2.5 0 13 7.5 21 15 11 10.5 20 25 23.5 38 1 4 2.5 7.5 3 7.5s2-3.5 3-7.5c3.5-13 12.5-27.5 23.5-38 8-7.5 18.5-15 21-15 1 0 2-0.5 2-1 0-1.5 11.5-6.5 20-8.5 10-2.5 31-3.5 41.5-2 12 2 22 6 31 12.5 3.5 2.5 6.5 4.5 7 4 0.5 0 1.5-3.5 2.5-7.5 2-9 6.5-18 11.5-23 3.5-3.5 6.5-5 15.5-7.5 18.5-5.5 36.5-14 51-24 9.5-6.5 11.5-8.5 22.5-21.5 15-17.5 21-26.5 29-43 5-10.5 8-18.5 11-30 4.5-17.5 5-22.5 4-36-2.5-38-15-71.5-37-99.5-9.5-12-29.5-32-41.5-41.5-27.5-22-61.5-32.5-92.5-28.5-15 2-35.5 8-47.5 14-5 2.5-9.5 4.5-10 4.5s-4-4-7.5-9c-7.5-11-25.5-30-36.5-38.5-13.5-10.5-31.5-18.5-47-21-10-1.5-33-1.5-43 0z" fill="#2e5c13"/>
  <path d="m492.5 145.5c-13 2-28 8.5-39.5 17-9.5 7-25 23-31.5 32.5-3 4.5-6 8-6.5 8s-4.5-1.5-9-3.5c-10-4.5-27-9.5-39.5-11.5-26-3.5-54.5 5.5-77.5 24-10 8-27 25-35 35-18.5 23.5-29 51-31 82.5-0.5 11.5-0.5 15.5 3.5 30 2.5 9.5 5 16.5 9 25 7 14 12 21.5 24.5 36 9 11 11 12.5 18.5 18 12.5 8.5 27.5 15.5 42.5 20 7.5 2 10 3.5 13 6.5 4 4.5 8 12 9.5 19 0.5 3.5 1.5 6.5 2 6.5s3-1.5 6-3.5c7.5-5.5 16-8.5 26-10.5 8.5-1.5 26-0.5 34.5 1.5 7 2 16.5 6 16.5 7 0 0.5 1 1 2 1 2 0 11 6.5 17.5 12.5 9.5 9 17 21 20 32 0.5 2 1.5 4 2 4 1 0 2-2 2.5-4 3-11 10.5-23 20-32 6.5-6 15.5-12.5 17.5-12.5 1 0 2-0.5 2-1 0-1 9.5-5 16.5-7 8.5-2 26-3 34.5-1.5 10 2 18.5 5 26 10.5 3 2 5.5 3.5 6 3.5s1.5-3 2-6.5c1.5-7 5.5-14.5 9.5-19 3-3 5.5-4.5 13-6.5 15-4.5 30-11.5 42.5-20 7.5-5.5 9.5-7 18.5-18 12.5-14.5 17.5-22 24.5-36 4-8.5 6.5-15.5 9-25 4-14.5 4-18.5 3.5-30-2-31.5-12.5-59-31-82.5-8-10-25-27-35-35-23-18.5-51.5-27.5-77.5-24-12.5 2-29.5 7-39.5 11.5-4.5 2-8.5 3.5-9 3.5s-3.5-3.5-6.5-8c-6.5-9.5-22-25.5-31.5-32.5-11.5-8.5-26.5-15-39.5-17-8.5-1.5-27.5-1.5-36 0z" fill="#96c93d"/>
 </g>
</svg>
